<svg width="155" height="20" viewBox="0 0 155 20" fill="none" xmlns="http://www.w3.org/2000/svg">
<path d="M10.7308 0L13.14 6.90983H20.9363L14.6289 11.1803L17.0382 18.0902L10.7308 13.8197L4.42338 18.0902L6.83259 11.1803L0.525201 6.90983H8.32156L10.7308 0Z" fill="#744D4D"/>
<path d="M44.1154 0L46.5246 6.90983H54.321L48.0136 11.1803L50.4228 18.0902L44.1154 13.8197L37.808 18.0902L40.2172 11.1803L33.9098 6.90983H41.7062L44.1154 0Z" fill="#744D4D"/>
<path d="M77.5 0L79.9092 6.90983H87.7056L81.3982 11.1803L83.8074 18.0902L77.5 13.8197L71.1926 18.0902L73.6018 11.1803L67.2944 6.90983H75.0908L77.5 0Z" fill="#744D4D"/>
<path d="M110.885 0L113.294 6.90983H121.09L114.783 11.1803L117.192 18.0902L110.885 13.8197L104.577 18.0902L106.986 11.1803L100.679 6.90983H108.475L110.885 0Z" fill="#744D4D"/>
<path d="M146.206 7.07422L146.324 7.41016H152.845L147.887 10.7666L147.569 10.9814L147.696 11.3447L149.608 16.8301L144.549 13.4053L144.269 13.2158L143.989 13.4053L138.93 16.8291L140.843 11.3447L140.97 10.9814L140.652 10.7666L135.694 7.41016H142.215L142.332 7.07422L144.269 1.51855L146.206 7.07422Z" stroke="#744D4D"/>
</svg>
